<svg xmlns="http://www.w3.org/2000/svg" viewBox="0 0 179.42 179.42"><defs><style>.cls-1{fill:#fff;}.cls-2{fill:#63c740;}.cls-3{fill:#48474f;}</style></defs><title>Asset 2</title><g id="Layer_2" data-name="Layer 2"><g id="Objects"><path class="cls-1" d="M89.71,179.42a89.71,89.71,0,1,1,89.71-89.71A89.81,89.81,0,0,1,89.71,179.42Z"/><circle class="cls-2" cx="89.71" cy="89.71" r="79.06"/><path class="cls-3" d="M64.57,87.83a32.29,32.29,0,0,0-.64-3.73,6,6,0,0,0-5.37-4.83c-2.93-.3-4.79,2.88-5,5.38-.11,1.43.23,2.85.21,4.29a5.43,5.43,0,1,0,10.86,0A10.2,10.2,0,0,0,64.57,87.83Z"/><path class="cls-3" d="M129.9,88.17v0a10.41,10.41,0,0,0-.74-7.12A4.34,4.34,0,0,0,128,79.68a4,4,0,0,0-5.5,0A4.34,4.34,0,0,0,121.3,81a10.3,10.3,0,0,0-.84,6.68,4.65,4.65,0,0,0,.11.54,4.53,4.53,0,0,0,.83,1.66h0c.09.11.19.2.29.31a4.81,4.81,0,0,0,1.1.92,4.64,4.64,0,0,0,1.76.59l.19,0,.5,0a4.66,4.66,0,0,0,1.28-.15,4.79,4.79,0,0,0,1.43-.69l.06,0,.3-.23a4.82,4.82,0,0,0,.54-.5h0a4.54,4.54,0,0,0,1-1.9Z"/><path class="cls-3" d="M116.88,116.07c-8.27-15.35-26-20.83-41.43-12.58-14.65,7.84-25.17,30.82-12.92,44.82a.85.85,0,0,0,.71.32c4.43,4.22,9.64,3.53,15.68,3.14,11.13-.71,19.37-10.85,30.72-4.57,2.22,1.23,5.42,3.53,8.07,2a13.79,13.79,0,0,0,6.46-7.56C126.92,133,120.76,123.27,116.88,116.07Z"/><path class="cls-3" d="M104,153.5c-2.22-1.8-4.52-1.9-7.3-1.69a31.76,31.76,0,0,0-4,.62c-1.54.32-2.44,1.71-3.86,2.27-2.39.94-.5,4.32,1.26,3,3.53-2.65,8.9-2.84,13.17-2.32A1.1,1.1,0,0,0,104,153.5Z"/><path class="cls-1" d="M79.08,106.82c5.89-3.16,13.22-3.2,19.51-1.42a22.2,22.2,0,0,1,10.72,7.49c-6.1,1.58-12.27,1-18.53.9A77.11,77.11,0,0,1,79,113.05c-1.28-.21-4.49-1.11-5.88-2.24A37.14,37.14,0,0,1,79.08,106.82Z"/></g></g></svg>