<svg xmlns="http://www.w3.org/2000/svg" viewBox="0 0 179.42 179.42"><defs><style>.cls-1{fill:#fff;}.cls-2{fill:#f4596b;}.cls-3{fill:#48474f;}.cls-4{fill:#c72a3b;}</style></defs><title>Asset 3</title><g id="Layer_2" data-name="Layer 2"><g id="Objects"><path class="cls-1" d="M89.71,179.42a89.71,89.71,0,1,1,89.71-89.71A89.81,89.81,0,0,1,89.71,179.42Z"/><circle class="cls-2" cx="89.71" cy="89.71" r="79.06"/><path class="cls-3" d="M55.58,80.95a14.59,14.59,0,0,0-4.08,3c-1.34,1.47-2.8,2.5-3.46,4.48a2.06,2.06,0,0,0,1.46,2.56,6.93,6.93,0,0,0,9.15,2.84c3.05-1.54,3.16-4.87,3.36-7.83C62.26,82.35,59.24,79.23,55.58,80.95Z"/><path class="cls-3" d="M128.86,83.31a1.92,1.92,0,0,0-.68-.77l-.67-1a15.89,15.89,0,0,0-2.08-1.86c-1.3-.91-2.76-1.14-4.15-1.78-.22-.1-.44-.19-.66-.27l-.22-.15a3.11,3.11,0,0,0-3.14-.05,6.54,6.54,0,0,0-1.19.39,1.24,1.24,0,0,0-.54,1.65c-.89,2.53.66,6,2.24,7.81,2.47,2.91,8.07,4.14,10.94,1.24C130.18,87,129.81,84.94,128.86,83.31Z"/><path class="cls-3" d="M138.92,104.44c-1.25-1.65-2.27-2-4.41-2-3.65.1-7.29-.32-10.94-.17-8.44.35-16.82,1.12-25.26,1.43s-16.74,2.42-24.71,4.87A108.57,108.57,0,0,0,63,112.54c-3.69,1.58-7.41,4-11.23,5.11a1.35,1.35,0,0,0,.36,2.63c5.43,0,10.88-2.68,16-4.53-.67,5.67.57,11.27,7.34,12.51a9.73,9.73,0,0,0,9.79-3.89c2.17,1.62,5.48,1.61,8.15,1.8a7.1,7.1,0,0,0,7.56-5.11c2.6,2.44,6.34,3.83,9.74,2.22a7.15,7.15,0,0,0,2.68-2.15,13,13,0,0,0,7.61,1.43,6.62,6.62,0,0,0,6.15-5.75,29.88,29.88,0,0,0-.23-10.69,36.58,36.58,0,0,1,10.91-.22C138.55,106,139.51,105.22,138.92,104.44Z"/><path class="cls-1" d="M75.41,123c-3.57-.25-4.37-4.54-4.89-8,3-.94,5.93-1.83,8.93-2.62.43,2.16,1.7,4.13,1.81,6.38C81.42,122,78.08,123.18,75.41,123Z"/><path class="cls-1" d="M93.39,121.3a28.12,28.12,0,0,1-3.91-.35c-1-.2-1.91-1.38-2.48-2.5-.14-2.51-1.12-5-1.89-7.5,3-.67,6.12-1.21,9.21-1.58C94.83,112.79,99.48,121.64,93.39,121.3Z"/><path class="cls-1" d="M102.26,118.79a5.24,5.24,0,0,1-1.08-1.44,19.71,19.71,0,0,0-.19-2c-.34-2.21-1.55-4.19-1.79-6.4v0c3.1-.22,6.21-.34,9.31-.51a35.87,35.87,0,0,0,.59,5.16,12.9,12.9,0,0,0,.13,1.75,7.39,7.39,0,0,1-.14,1.68C108.4,120.13,104.42,120.66,102.26,118.79Z"/><path class="cls-1" d="M120.83,113.58c0,.79.06,1.58,0,2.37s.09.38-.71.58c-1.88.47-4.11-.14-5-1.74,0-.06,0-.12,0-.19a24.18,24.18,0,0,0-.66-6.65l1.84-.2c1.31-.16,2.67-.37,4-.6A35.78,35.78,0,0,1,120.83,113.58Z"/><path class="cls-3" d="M90.46,83.73c-2.17-1.6-4-2.36-6.74-2-4.81.66-7.09,8.39-4.32,11.87.54.68,1.37.17,1.57-.49l0,.07c0-.13.08-.28.11-.43.06,0,.11,0,.15-.19a.55.55,0,0,0,0-.55c.6-3,1-7.36,4.84-6.41,3.39.85,3.59,5.62,7.28,6a1.31,1.31,0,0,0,1.31-1.31C94.7,87.87,92.35,85.13,90.46,83.73Z"/><path class="cls-4" d="M141.41,89.06a1.89,1.89,0,0,0,0,3.77A1.89,1.89,0,0,0,141.41,89.06Z"/><path class="cls-4" d="M149.41,84.67c-2.93,0-2.93,4.54,0,4.54S152.34,84.67,149.41,84.67Z"/><path class="cls-4" d="M152.75,96.56a1.72,1.72,0,0,0,0,3.45A1.72,1.72,0,0,0,152.75,96.56Z"/><path class="cls-4" d="M159.41,88.95c-2.57,0-2.57,4,0,4S162,88.95,159.41,88.95Z"/><path class="cls-4" d="M144.08,95.79c-3.21,0-3.21,5,0,5S147.29,95.79,144.08,95.79Z"/><path class="cls-4" d="M149.41,92.13a1.48,1.48,0,0,0,0,3A1.48,1.48,0,0,0,149.41,92.13Z"/><path class="cls-4" d="M160.75,97.39a1.56,1.56,0,0,0,0,3.12A1.56,1.56,0,0,0,160.75,97.39Z"/><path class="cls-4" d="M33.41,102.66a1.61,1.61,0,0,0,0,3.23A1.61,1.61,0,0,0,33.41,102.66Z"/><path class="cls-4" d="M34.74,113.69a2,2,0,1,0-4,0l-.05.58a2.05,2.05,0,1,0,4.1,0Z"/><path class="cls-4" d="M44.75,106c-3.74,0-3.74,5.8,0,5.8S48.48,106,44.75,106Z"/><path class="cls-4" d="M41.41,97.41A2.9,2.9,0,0,0,38.65,101l.15.48a2.72,2.72,0,0,0,5.25,0l.15-.48A2.9,2.9,0,0,0,41.41,97.41Z"/><path class="cls-4" d="M24.75,106.77a1.5,1.5,0,0,0,0,3A1.5,1.5,0,0,0,24.75,106.77Z"/><path class="cls-4" d="M40.08,113.55a1.4,1.4,0,0,0,0,2.79A1.4,1.4,0,0,0,40.08,113.55Z"/></g></g></svg>