<svg xmlns="http://www.w3.org/2000/svg" viewBox="0 0 179.42 179.42"><defs><style>.cls-1{fill:#fff;}.cls-2{fill:#ffb570;}.cls-3{fill:#48474f;}.cls-4{fill:#ff7872;}</style></defs><title>Asset 4</title><g id="Layer_2" data-name="Layer 2"><g id="Objects"><path class="cls-1" d="M89.71,179.42a89.71,89.71,0,1,1,89.71-89.71A89.81,89.81,0,0,1,89.71,179.42Z"/><circle class="cls-2" cx="89.71" cy="89.71" r="79.06"/><path class="cls-3" d="M100,84.74c-13.2-2.43-19.8,10.38-28.56,17.07-4.2,3.21-13.64,5.73-18.71,2.91-4.43-2.46-5.91-8.41.13-10.17C54.71,94,58.1,96.08,57,91.93c-.66-2.53-4.51-3.4-6.73-3.34-5.93.18-9,4.17-9.74,9.68-3.4,27,49.55,16.73,62.59,9.63C112.4,102.87,110.92,86.75,100,84.74Z"/><path class="cls-3" d="M163.77,87.95c-1.67-4.28-4.87-7.55-9.06-5.45-5,2.51,1.62,5.19,1.79,8,.46,8-13.39,7.74-18.22,5-7.76-4.46-8.37-15.55-20.71-11.85-10,3-7.72,16.75.2,20.93,11.71,6.19,38.52,7.49,46.38-5.79C165.52,96.47,165.27,91.8,163.77,87.95Z"/><path class="cls-3" d="M121.62,112.06a.83.83,0,0,0-1.5-.2c-3.11,5.46-5.93,13.9-14.36,11.52-2.57-.73-6.42-2.48-6.66-5.54-.05-.67-.53-4-1-3.23a.64.64,0,0,0,0-.66,1.54,1.54,0,0,1-.17-.29,1.24,1.24,0,0,0-2.13,0c-4.46,7.35,3.33,13.74,10.4,14a13.88,13.88,0,0,0,11.1-5.07C119.44,120,122.77,115.58,121.62,112.06Z"/><path class="cls-3" d="M120.3,61.2c-1.85-3.92-5.95-8.2-10.66-5.75-2.37,1.23-3.59,2.84-5.25,4.86s-4.57,1.05-6.71.62a.71.71,0,0,0-.55,1.3c1,.62,1.44,1.77,2.69,1.95s2.45.3,3.67.43c2.51.27,4.38-3.06,5.77-4.56,3-3.23,6.1-.25,7.3,2.74,1,2.47-.79,5.11-2,7.12-2,3.5-7.12,2.41-9.81,5a2,2,0,0,0,0,2.75c3.63,3.19,9.07.86,12.28-1.85C120.93,72.55,122.43,65.71,120.3,61.2Z"/><path class="cls-3" d="M71,49.4c-1,.57-3,1.26-3.51,2.36a30.57,30.57,0,0,1-3.75,5.41c-3.18,4-7.29,2.75-10.31-.8a.83.83,0,0,0-1.37.36c-1.92,5.12,5.15,10.26,9.85,9.1a13.51,13.51,0,0,0,7.58-5.53c2.22-3.22,1.92-6.2,3-9.74A1,1,0,0,0,71,49.4Z"/><path class="cls-3" d="M139.31,43.48c-1.39.71-3.88,2.08-5.46,1.76a7.76,7.76,0,0,1-4.19-2.36,1.54,1.54,0,0,0-1.08-1.42l-.18-.06a1.81,1.81,0,0,0-2.61,1.06c-1.18,3.62,2.81,6.9,5.82,8,4.64,1.77,7.92-.81,10-4.72A1.71,1.71,0,0,0,139.31,43.48Z"/><path class="cls-4" d="M50.51,79.29A7.94,7.94,0,0,0,49,70l0,0c-2.53-3-7.2-3.84-11.06-2.11l-.11.06a7.78,7.78,0,0,0-6.22,4.28A15.87,15.87,0,0,0,30.12,75a9.6,9.6,0,0,0,.52,7.41c1,2.29,3.17,3.55,5.39,4.43,3.79,1.51,8.79-.11,11.45-3a9.38,9.38,0,0,0,1.08-1.43A9.55,9.55,0,0,0,50.51,79.29Z"/><path class="cls-4" d="M161.14,59.64a11.85,11.85,0,0,0-8.47-7.77,8.18,8.18,0,0,0-10,5.67c-1.23,3.81.29,9.32,3.89,11.35a7.49,7.49,0,0,0,5.81.76l.18,0a4.7,4.7,0,0,0,2-.18,8,8,0,0,0,3.73-2C160.51,65.67,162,62.56,161.14,59.64Z"/></g></g></svg>