<svg xmlns="http://www.w3.org/2000/svg" viewBox="0 0 179.42 179.42"><defs><style>.cls-1{fill:#fff;}.cls-2{fill:#ffb570;}.cls-3{fill:#48474f;}.cls-4{fill:#ff7872;}</style></defs><title>Asset 5</title><g id="Layer_2" data-name="Layer 2"><g id="Objects"><path class="cls-1" d="M89.71,179.42a89.71,89.71,0,1,1,89.71-89.71A89.81,89.81,0,0,1,89.71,179.42Z"/><circle class="cls-2" cx="89.71" cy="89.71" r="79.06"/><path class="cls-3" d="M148.83,74.33a26,26,0,0,0-7-13.92c-4.13-4.48-9.59-5.75-15.49-5.92-9-.27-17,8.13-19.6,16.08-2.78,8.63,1,15.32,7.07,20.11a23,23,0,0,0,12.48,5.61c3.8.58,10.17.51,12.91-2.83C146,90.25,149.89,81.52,148.83,74.33Z"/><path class="cls-1" d="M133.37,92.23c-.18.06-.36.13-.54.17a21.57,21.57,0,0,1-7.29,0c-4.1-.42-7.69-2.24-11.39-3.87a19.6,19.6,0,0,1-4.81-15.93,17.5,17.5,0,0,1,15.48-14.71c9.36-1,16.86,6.56,19.2,14.9,1.2,4.27,0,7.63-1.51,11.56C140.92,88.49,136.64,89.84,133.37,92.23Z"/><path class="cls-3" d="M133.21,74.07a8.43,8.43,0,0,0-1.29-5c-1.46-2.13-4-3.93-6.68-3.61l-.45.07a7.56,7.56,0,0,0-6.66,4.65,9.09,9.09,0,0,0,.06,8.58c.12.32.25.63.4.93a7.24,7.24,0,0,0,6.51,4h.24a7.31,7.31,0,0,0,6.85-3.43A8.22,8.22,0,0,0,133.21,74.07Z"/><path class="cls-3" d="M72.16,75.66a26,26,0,0,0-7-13.92C61,57.26,55.59,56,49.69,55.82c-9-.27-17,8.13-19.6,16.08-2.78,8.63,1,15.32,7.07,20.11a23,23,0,0,0,12.48,5.61c3.8.58,10.17.51,12.91-2.83C69.29,91.58,73.22,82.86,72.16,75.66Z"/><path class="cls-1" d="M56.71,93.56c-.18.06-.36.13-.54.17a21.57,21.57,0,0,1-7.29,0c-4.1-.42-7.69-2.24-11.39-3.87A19.6,19.6,0,0,1,32.68,74,17.5,17.5,0,0,1,48.16,59.27c9.36-1,16.86,6.56,19.2,14.89,1.2,4.27,0,7.63-1.51,11.56C64.26,89.83,60,91.18,56.71,93.56Z"/><path class="cls-3" d="M59.23,74a10.25,10.25,0,0,0-4.17-5.61A7.53,7.53,0,0,0,47.44,68c-2.72,1.26-3.72,4.39-3.9,7.13A10.53,10.53,0,0,0,46,82.85a5.81,5.81,0,0,0,1,.81A7.39,7.39,0,0,0,53.24,85a8.61,8.61,0,0,0,4.93-3.63A9,9,0,0,0,59.23,74Z"/><path class="cls-3" d="M94.38,88.93a10.8,10.8,0,0,0-1-4.17c-1.29-2.19-4.66-2.82-6.87-2a6.28,6.28,0,0,0-4,4.6c-.36,1.91.3,4.07,2.29,4.72a1.49,1.49,0,0,0,1.44-2.47c.12.13.26-.64.31-.83.16-.56.11-.31.51-.78.6-.69,1.22-1,1.89-.6.25,1.62.11,3.5,1.23,4.65l.12.18a1.83,1.83,0,0,0,3.12,0l.17-.26A3.63,3.63,0,0,0,94.38,88.93Z"/><path class="cls-3" d="M100.72,103a1.68,1.68,0,0,0-2.32,0c-2.5,2.2-1.71,5.25-2.5,8.31-1.24,4.8-7,7-11.27,5a9.25,9.25,0,0,1-5.54-7c-.53-2.79-.4-5.47-2.3-7.75a.79.79,0,0,0-1.12,0c-2.75,3.31-2.79,8.87-1.27,12.71,1.89,4.79,6.82,7.92,11.74,8.71a13.92,13.92,0,0,0,12.81-5.14C101.89,114.45,104.65,106.55,100.72,103Z"/><path class="cls-4" d="M156.83,114.14c3.39-5.22,3-12.42-2.59-16.17-5.08-3.39-13.05-2.54-17.53,1.54-6.38,5.8-3.18,16.71,4.47,19.48l.69.22c3.43,1.58,7.79.86,11.11-1.24A9.64,9.64,0,0,0,156.83,114.14Z"/><path class="cls-4" d="M43.9,107a11.65,11.65,0,0,0-6-10.25c-6.62-3.69-16.6-1.11-19.74,5.26-3,6-.67,12.73,5.79,16.23a11.26,11.26,0,0,0,7.9.84A15.7,15.7,0,0,0,40.15,116C43,113.93,44,110.06,43.9,107Z"/></g></g></svg>