<svg xmlns="http://www.w3.org/2000/svg" viewBox="0 0 179.42 179.42"><defs><style>.cls-1{fill:#fff;}.cls-2{fill:#63c740;}.cls-3{fill:#48474f;}</style></defs><title>Asset 6</title><g id="Layer_2" data-name="Layer 2"><g id="Objects"><path class="cls-1" d="M89.71,179.42a89.71,89.71,0,1,1,89.71-89.71A89.81,89.81,0,0,1,89.71,179.42Z"/><circle class="cls-2" cx="89.71" cy="89.71" r="79.06"/><path class="cls-3" d="M142.33,100a5.46,5.46,0,0,0-2.33.1,2,2,0,0,1-1.6-.16A8.82,8.82,0,0,1,134,96c-.58-1.27-2.54-.36-2.2.93a23.55,23.55,0,0,0,1.33,3.89,43.85,43.85,0,0,0-6.43,5.82c-3.14,3.16-6.58,5.9-10,8.73a45.9,45.9,0,0,1-24.49,10.36c-9.31,1-18.09-.59-25.91-5.79C59.43,115.4,51,107.39,50.46,98.65c-.17-2.72-4.31-2.77-4.27,0,.14,9.79,5,17.31,11.95,23.91,8.19,7.81,17.91,10.92,29,11.44,10.49.49,20.51-2.62,29.38-8.11,7.05-4.37,17.64-11.92,20.62-20.53a6.17,6.17,0,0,0,4,.54c2.13-.53,2.91-1.85,3.12-3.91A2,2,0,0,0,142.33,100Z"/><path class="cls-3" d="M140.33,72c-5-4.44-12.84-2.18-18.35.15-3.15,1.33-5.67,3.74-8.11,6.06-2.17,2.06-4.9,4.16-5.36,7.3-.24,1.63,1.8,3.48,3.15,1.84,1.53-1.87,4-2.95,5.85-4.4a59.8,59.8,0,0,1,6.4-4.42c4.92-2.84,10.59-1.31,15.59-3.36C140.7,74.64,141.51,73,140.33,72Z"/><path class="cls-3" d="M59.08,74.56a24.4,24.4,0,0,0-.14-3.47c-.38-2.55-4.06-3.21-5.67-1.5-1.84,2-2.54,5.33-2.46,8a4.19,4.19,0,1,0,8.39,0C59.23,76.56,59.09,75.56,59.08,74.56Z"/><path class="cls-3" d="M86.16,100.16c-1.3-1.6-3.62-1.7-5.39-2.68a17,17,0,0,1-5.18-4.75C74.3,91,73.45,86.25,77.22,88c1.84.85,2.85,2.14,4.15,3.62a1.36,1.36,0,0,0,2.31-1,18,18,0,0,1,1-3.9.39.39,0,0,0-.64-.37c-.66.68-1.32,1.25-1.89,1.91-1.58-1.94-3.41-3.75-6.12-4C73,84,70.42,87.1,70.33,90c-.13,3.92,2.15,7.25,5,9.74,2.53,2.19,7.79,5.78,10.81,2.76A1.68,1.68,0,0,0,86.16,100.16Z"/><path class="cls-3" d="M98.16,141.88c-2.69,1.58-7.47,3.17-10.57,1.81-2.34-1-4.92-1-6.85-2.78a.58.58,0,0,0-.7-.09c-3.73,2.58,3.73,5.93,5.24,6.81,5.49,3.22,12.23,2.48,15.16-3.48A1.68,1.68,0,0,0,98.16,141.88Z"/></g></g></svg>