<svg xmlns="http://www.w3.org/2000/svg" viewBox="0 0 179.42 179.42"><defs><style>.cls-1{fill:#fff;}.cls-2{fill:#f4596b;}.cls-3{fill:#48474f;}</style></defs><title>Asset 7</title><g id="Layer_2" data-name="Layer 2"><g id="Objects"><path class="cls-1" d="M89.71,179.42a89.71,89.71,0,1,1,89.71-89.71A89.81,89.81,0,0,1,89.71,179.42Z"/><circle class="cls-2" cx="89.71" cy="89.71" r="79.06"/><path class="cls-3" d="M146.69,83.46a58.29,58.29,0,0,1-3.88-4.94,8.29,8.29,0,0,0-6-3.17.47.47,0,0,0-.46.46,5.49,5.49,0,0,0,.78,3,8.51,8.51,0,0,0,.71,1.08c-3.38,2-6.36,4.93-9.51,7.31a75.73,75.73,0,0,1-12,7.11c-9,4.51-18.36,6.91-28,9.61-17.55,4.89-40.55,1-51.4-14.94a1.64,1.64,0,0,0-1.51-.74,12.34,12.34,0,0,0,0-5.91.61.61,0,0,0-1.16,0c-.91,3-3,6-2.55,9.14a1.18,1.18,0,0,0,2,.52,8.73,8.73,0,0,0,.65-1,42.43,42.43,0,0,0,5.91,6.88.71.71,0,0,0,0,.09c1.2,7,6.53,13.35,8.92,20,2.08,5.82,3.92,11.33,8.12,16a39.18,39.18,0,0,0,34,13.12c13.3-1.48,23.25-10.22,30.3-21.06A157.66,157.66,0,0,0,133,105.84c1.46-3.2,2.63-6.56,3.92-9.83.64-1.63-.11-5.35.83-6.59a1.39,1.39,0,0,0,.27-.64c1.14-.9,2.26-1.85,3.36-2.81a7.63,7.63,0,0,0,2,1.85C146,89.54,148.9,85.65,146.69,83.46Z"/><path class="cls-1" d="M67.68,110.67c-1.66,1.39-7.15,10-7.61,10.63l-.23.31c-4-4.08-5-10.63-7.18-16.12A96.47,96.47,0,0,0,67.68,110.67Z"/><path class="cls-1" d="M119.1,117.8c-.7-.73-1.38-1.49-2-2.25-1.65-1.89-3.23-3.85-4.9-5.73a40.22,40.22,0,0,0-4.6-4.41c3.81-1.7,7.59-3.47,11.3-5.38C118.89,105.94,119.77,112.13,119.1,117.8Z"/><path class="cls-3" d="M84.83,68.77c-2.65-.23-4-1.68-5.6-3.59a6,6,0,0,0-3.81-2c-2.95-.09-4.6,2-4.85,4.77-.29,3.1-.42,6.06,1.67,8.56,2.3,2.76,5.8,5.3,9.39,5.95,2.31.42,4.19-3,1.72-4.08a25.66,25.66,0,0,1-6.22-3.5c-2.14-1.77-2.06-3-2.27-5.58,0-.37-.26-1.82.05-2.1.79-.71,2.71,1,3.38,1.45,2.16,1.41,4.12,1,6.53.85A.38.38,0,0,0,84.83,68.77Z"/><path class="cls-3" d="M122.12,48.88c1-.76.46-2.84-.95-2.25-1.85.78-3,2.25-4.48,3.56-1.86,1.67-3.49,3.38-4.11,5.86a1.72,1.72,0,0,0,2.07,2,15.24,15.24,0,0,0,0,2.47,3.21,3.21,0,0,0,2.06,4.3l.09,0a3.38,3.38,0,0,0,4.67-2.15c.36-1.59.39-3.23.61-4.84.28-2.09.19-3.65-1.38-5.21a2.48,2.48,0,0,0-1.06-.62A15.86,15.86,0,0,1,122.12,48.88Z"/><path class="cls-3" d="M57.2,60.15a.82.82,0,0,0,0-.62,2.43,2.43,0,0,0-.73-1A3.75,3.75,0,0,0,55,57.18a3.5,3.5,0,0,0-1.4-.37c-.67-.48-1.31-1-1.92-1.54a19.36,19.36,0,0,1-4.9-6.5.77.77,0,0,0-1.4.18c-.65,2.52,1.65,5.7,3.3,7.43.48.5,1.2,1.29,2,2.08-1.66,2.94-1.47,7-1,10.2a2.56,2.56,0,0,0,1.08,1.64,2.74,2.74,0,0,0,3.67.87c2.3-1,2.68-4.85,2.9-7A11.85,11.85,0,0,0,57.2,60.15Z"/><path class="cls-3" d="M100.37,153c-2.27-1.21-5.09,0-7.6-.1a31.74,31.74,0,0,0-3.29,0,7.43,7.43,0,0,0-1.06.11c-.52.09-.89-.21-.57.26-.5-.73-2-.83-2.15.28-.44,3,2.44,3.5,4.71,4.18,3.42,1,9.21,1.16,10.75-2.74A1.71,1.71,0,0,0,100.37,153Z"/></g></g></svg>