<svg xmlns="http://www.w3.org/2000/svg" viewBox="0 0 179.42 179.42"><defs><style>.cls-1{fill:#fff;}.cls-2{fill:#63c740;}.cls-3{fill:#48474f;}</style></defs><title>Asset 8</title><g id="Layer_2" data-name="Layer 2"><g id="Objects"><path class="cls-1" d="M89.71,179.42a89.71,89.71,0,1,1,89.71-89.71A89.81,89.81,0,0,1,89.71,179.42Z"/><circle class="cls-2" cx="89.71" cy="89.71" r="79.06"/><path class="cls-3" d="M65,67.16C57.14,64,49.34,66.8,46.53,75.11c-3.17,9.36,6.58,16.3,14.6,11.4,2.34-1.43,1.23-5.11-1.28-5.51s-6.23.06-6-3.63A5.82,5.82,0,0,1,58.22,72c4.54-1,10.38,3.16,12.16,7.09,1.94,4.29-2,10.36-4.78,13.43-4.11,4.59-10.39,5.26-15.85,3C39.78,91.38,32.36,78,36,67.57c1.86-5.38,6.07-9.81,10.59-13.06A20.93,20.93,0,0,1,55.17,51c5.27-1,8.12,3,9.94,7.22a.63.63,0,0,0,1.18-.45c-1.52-4-2.45-6.67-6.13-9.1-3.07-2-6.92-2.16-10.41-1.28-9.72,2.45-19.1,10-22.26,19.68-5.92,18.22,14,44.34,34,38.11a23.11,23.11,0,0,0,16.2-18.76C79.11,77.29,73.05,70.42,65,67.16Z"/><path class="cls-3" d="M141.51,81.71c-.51-8.86-6.25-17.66-15.74-18-7.77-.32-16.11,6.53-15.34,14.86.79,8.49,9.18,11.88,16.2,8,3-1.64.52-5.38-2.06-5.44C119.84,81,117,78.17,120,73.74c3.84-5.56,10.37-1.45,12.43,3.22,4.69,10.64-9.65,21.43-19.2,19.92-4.58-.72-7.71-5.9-9.23-9.8-1.93-4.94-1.69-10.53-.83-15.65.89-5.28,3.89-9.83,7.19-13.93,4.19-5.22,13.51-3.94,17.38.79a1,1,0,0,0,1.69-1.21c-3.89-7-12.19-10.69-19.81-8-4.3,1.53-7.45,5.86-10.1,9.32-3.27,4.25-4.88,9.33-5.76,14.55-3.25,19.28,11.56,41.1,32.6,31.26C135,100.19,142.08,91.58,141.51,81.71Z"/><path class="cls-3" d="M83.25,113.5a14.93,14.93,0,0,0-2-1.08,5.92,5.92,0,0,1-2-1.05c-.36-.31-.35-1.16-.29-1.56,0-.2.74-.45,1.23-.61,1.06,0,2.64,0,2.92.59a.37.37,0,0,0,.46.2c2.11-.62.65-3.3-.57-4a6.13,6.13,0,0,0-7.49.49c-2.09,2-1.83,5.87,0,8s4.53,2.45,7.2,2.05A1.57,1.57,0,0,0,83.25,113.5Z"/><path class="cls-3" d="M125.45,126c-1.89.39-3.74,1.76-5.73,1.41-1.6-.29-3.15-1-4.83-.79-4.43.62-6.6,3-9.93,5.61-2.09,1.65-7.89-2.8-10.78-2.8-2.7,0-5.23,3.16-6.95,4.87-6.84,6.8-15.58-8.27-22-.51-2.93,3.52-5,9.82,1,10.6a1.09,1.09,0,0,0,.36-2.16c-2.22-.53.43-4.44.87-5.06,1.78-2.5,5,.09,6.56,1.06,2.55,1.61,5.4,3.17,8.5,3.25A10.74,10.74,0,0,0,90,138.88c2.81-2.32,4-5.53,8.1-3,5,3,8.43,2.48,12.57-1.52,5.24-5.07,12.5,1.92,17-5.25C128.49,127.71,127,125.7,125.45,126Z"/></g></g></svg>