<svg xmlns="http://www.w3.org/2000/svg" viewBox="0 0 179.42 179.42"><defs><style>.cls-1{fill:#fff;}.cls-2{fill:#f4596b;}.cls-3{fill:#48474f;}</style></defs><title>Asset 9</title><g id="Layer_2" data-name="Layer 2"><g id="Objects"><path class="cls-1" d="M89.71,179.42a89.71,89.71,0,1,1,89.71-89.71A89.81,89.81,0,0,1,89.71,179.42Z"/><circle class="cls-2" cx="89.71" cy="89.71" r="79.06"/><path class="cls-3" d="M133.65,102.94c-.16-4-.75-7.92-1.25-11.86C132,88,130.17,86,129,83.33a19.87,19.87,0,0,0,1.21-3.83A1.57,1.57,0,0,0,127.64,78c-2.51,2.32-4.23,5.33-6.22,8.08a91.84,91.84,0,0,1-7.94,9.37,69.39,69.39,0,0,1-18.76,14.12c-8.16,4.16-16.87,4.86-25.82,3.5a41.3,41.3,0,0,1-12.67-3.57c-1-.49-2-.91-3-1.32a1.67,1.67,0,0,0-1.32-1.54l-.63-.12a2.47,2.47,0,0,0-1.63.27A27.84,27.84,0,0,1,45,104.56a.6.6,0,0,0-.73.95,20.89,20.89,0,0,0,4.4,3.23c-1.53,12.35,6.31,23.9,16.22,30.55,10.76,7.23,24.65,8.82,37.13,6.27,13-2.66,24-10.54,29.89-22.3C134.93,117.35,133.91,109.31,133.65,102.94Z"/><path class="cls-1" d="M127.69,115.79c-.7,11.93-12.58,20-22.86,23.46s-22.19,2.54-32.07-1.81a32.91,32.91,0,0,1-12.11-9,37.86,37.86,0,0,0,9.92,3c6.88,1.2,14.14-.11,20.94-1.27A56.58,56.58,0,0,0,102.74,127a5.61,5.61,0,0,0,1.31,2.13,1,1,0,0,0,1.65-.43,9.84,9.84,0,0,0-.08-2.92,51.9,51.9,0,0,0,9.51-5.72,16.14,16.14,0,0,0,1.39,4.91c.44.91,1.59.49,1.9-.25a15,15,0,0,0,.43-7.75,43.9,43.9,0,0,0,6.27-7.25c.84-1.23-.9-2.22-1.89-1.46-1.89,1.46-3.75,2.91-5.62,4.34-.82-2.23-1.9-4.55-3.92-5.76-2.27-1.36-4,2.33-1.43,3.4,1.08.46,1.94,2.76,2.35,4.62-1.65,1.22-3.31,2.43-5,3.59a30,30,0,0,1-5.25,2.73c-.17-.47-.34-.93-.51-1.37-.69-1.83-.86-4.13-2.13-5.64-1-1.16-3,.42-2.1,1.62.6.78.23,1.5.47,2.36.38,1.37,1,2.73,1.47,4.09-3.25,1.13-6.62,2-9.65,2.76-10.42,2.64-23.34,5.1-33.5.43a35.77,35.77,0,0,1-5.29-14.08l.13.08A39.57,39.57,0,0,0,66,116.84a45.79,45.79,0,0,0,27.62-1.46c8-3,15-8.29,21.12-14.1a82.31,82.31,0,0,0,11-12.09c.46,2.91,1.2,5.75,1.53,8.71A106.31,106.31,0,0,1,127.69,115.79Z"/><path class="cls-3" d="M86.75,93.36c-3.38.45-6.82,0-9.45-2.3a12,12,0,0,1-2.57-3.3,7.25,7.25,0,0,1-.64-1.58c-.14-.47-.07.07.56,0,3.56-.41,10.84-.35,10.2-5.76-.21-1.77-2.89-1.88-2.84,0,.05,2.3-6.17.62-7.81.62-4,0-6,2.87-5.43,6.62.56,3.94,4,7.21,7.1,9.25,3.93,2.55,8,1.94,11.77-.33C89,95.76,88.53,93.12,86.75,93.36Z"/><path class="cls-3" d="M105.34,38.07a1.32,1.32,0,0,0-2.53,0c-1,3.07-1.92,5.1-4.52,7.09-2.13,1.63-5.18,2.81-5.1,5.93a2.27,2.27,0,0,0,1.63,2.14c3.12,1.09,7-2.28,8.85-4.52C106.34,45.51,106.54,41.91,105.34,38.07Z"/><path class="cls-3" d="M55.25,58.6c-2.14-.9-4.4-1.47-6.53-2.42s-3.26-2.72-5-4.06c-1.54-1.17-3.56,1.07-2.58,2.58.77,1.19,1.46,2.43,2.25,3.6A7.77,7.77,0,0,0,46.78,61c2.83,1.41,5.4,2.33,8.47,1.26A1.9,1.9,0,0,0,55.25,58.6Z"/><path class="cls-3" d="M52.76,75.87,52.22,75l0,0a3.46,3.46,0,0,0-3.46-3.39A3.56,3.56,0,0,0,45.34,76a16.61,16.61,0,0,0,2.94,5.79c1.88,2.21,5.83.44,5.69-2.36A7.62,7.62,0,0,0,52.76,75.87Z"/><path class="cls-3" d="M108.23,67.94c0,.45-.32-2.42-.14-.86a14.23,14.23,0,0,1,0-2,4,4,0,0,0-8,0c.06,2.25.19,4.65,2,6.2a3.51,3.51,0,0,0,6-2.48C108,70,108.19,68.35,108.23,67.94Z"/></g></g></svg>