<svg xmlns="http://www.w3.org/2000/svg" viewBox="0 0 179.42 179.42"><defs><style>.cls-1{fill:#fff;}.cls-2{fill:#ffb570;}.cls-3{fill:#48474f;}.cls-4{fill:#ff7e83;}</style></defs><title>Asset 10</title><g id="Layer_2" data-name="Layer 2"><g id="Objects"><path class="cls-1" d="M89.71,179.42a89.71,89.71,0,1,1,89.71-89.71A89.81,89.81,0,0,1,89.71,179.42Z"/><circle class="cls-2" cx="89.71" cy="89.71" r="79.06"/><path class="cls-3" d="M117,113.38c-4.37-6.86-14.74-9.2-22-11.06-7.93-2-16.26-2.4-23.47,1.83-5.5,3.23-11.62,10.22-13.65,16.28-1.27,3.78-3,9.3,1.56,11.29a29.68,29.68,0,0,0-2.16,5.6c-1.49,4.41-2.83,9.74.43,13.66,3,3.66,8.91,2.2,10.86-1.57,1.17-2.27,1-5.31.88-7.78-.15-2.74-1.49-5-2.47-7.31a22.5,22.5,0,0,0,13.92,1.8,28.4,28.4,0,0,0,10.49-4c3.18-2.07,7.87,1.48,11.39,2.14,5.1,1,14.26,4.12,16.6-2.94A22.3,22.3,0,0,0,117,113.38Z"/><path class="cls-4" d="M114.91,126.21c0,3.94-2.67,4.32-6.06,4.12a64.89,64.89,0,0,1-7.69-1.19c-2.28-.42-4.13-1.87-6.55-1.9-4.29-.05-7.28,3.38-11.3,4.63-7,2.17-21-3.79-21.52-3.31a2.23,2.23,0,0,0-1.05-.87c-.76-.31-.44-1.74.3-3.47a.61.61,0,0,0,.81.12c8.51-4.85,16.54-5.1,26.06-6,4.37-.42,9,.29,13.32.76,5.72.63,9.08,2.63,13.69,5.44C114.92,125.09,114.91,125.65,114.91,126.21Z"/><path class="cls-1" d="M64.1,149.91c-2.57.92-4.69-1.34-4.94-3.61-.39-3.44,1.09-11.22,3.76-14.43q.49.37,1,.71l.07.06c-.45-.31.81,2.61.79,2.56a19.58,19.58,0,0,1,2.11,7.87C67,145.37,66.79,148.94,64.1,149.91Z"/><path class="cls-3" d="M110.19,72.7c-2.45-5.13-8.89-2.92-11.3,1a1.49,1.49,0,0,0,2,2c1.24-.72,4.74-3.26,5.55-1,.89,2.42-.63,3.73-1.62,5.66a1.55,1.55,0,0,0,.91,2.25C111,83.83,111.76,76,110.19,72.7Z"/><path class="cls-3" d="M59.36,74.18a4.93,4.93,0,0,0-2.78-.72C56,70,54.66,66.14,51.41,64.81,47,63,47,69.36,47.15,71.92a25.17,25.17,0,0,0,.46,3.71c-1.26.51-2.3,1.29-2.15,2.79A1.38,1.38,0,0,0,48,79.1c.06-.11,1.49,6,6.11,5.58,3.72-.32,3-4.78,2.78-7.71a6.3,6.3,0,0,0,2.45-1A1.06,1.06,0,0,0,59.36,74.18Zm-8.75-5.1c.05-.13.09-.24.13-.35a7.74,7.74,0,0,1,2,5.29c-.68.18-1.33.37-1.89.56a21.05,21.05,0,0,1-.29-3.64Q50.6,70,50.61,69.08Z"/><path class="cls-3" d="M140.08,63.83a4.73,4.73,0,0,0-1.77-1A16.31,16.31,0,0,0,137,57.47c-1.57-3.33-6.08-6.55-8.13-1.73-.86,2-.64,4.31-.68,6.44,0,.58,0,1.14.05,1.68-.83.36-1.64.76-2.46,1.14a.88.88,0,0,0,.21,1.6,6,6,0,0,0,2.88.06c.08.2.14.4.24.59-1.38,3.95,4.39,8.31,7.36,4.4a11.09,11.09,0,0,0,1.92-5.82,4,4,0,0,0,1.74-.83A.82.82,0,0,0,140.08,63.83Zm-9.33-2.52c.1-1.48.41-7.59,3-3.93a9.78,9.78,0,0,1,1.6,5.08c-.53,0-1.06,0-1.56,0a3.42,3.42,0,0,0-1.88,0,3.26,3.26,0,0,0-.8.36l-.46.13C130.69,62.39,130.72,61.85,130.75,61.32Z"/><path class="cls-3" d="M53,92.34c-1.77-.53-3.65-.32-5.48-.5-2.2-.21-2.8-1.87-4.24-3.25a.68.68,0,0,0-1,1C43.53,91,44.08,93,46,93.48a13.59,13.59,0,0,0,7.07.34A.77.77,0,0,0,53,92.34Z"/><path class="cls-3" d="M143.64,75.28a.94.94,0,0,0-1.61,0c-.72,1.39-1.15,2.41-2,3.85a8.18,8.18,0,0,1-2,2c-.66.49-2.37-.29-3-.52s-.79.67-.25.9c1.22.5,1.84,1.65,3.19,1.87a5.56,5.56,0,0,0,4-1.23A5.45,5.45,0,0,0,143.64,75.28Z"/></g></g></svg>